<?xml version="1.0" encoding="UTF-8" standalone="no"?>
<!DOCTYPE svg PUBLIC "-//W3C//DTD SVG 1.1//EN"
 "http://www.w3.org/Graphics/SVG/1.1/DTD/svg11.dtd">
<!-- Generated by graphviz version 12.2.1 (20241206.2353)
 -->
<!-- Pages: 1 -->
<svg width="559pt" height="292pt"
 viewBox="0.00 0.00 558.50 292.25" xmlns="http://www.w3.org/2000/svg" xmlns:xlink="http://www.w3.org/1999/xlink">
<g id="graph0" class="graph" transform="scale(1 1) rotate(0) translate(4 288.25)">
<polygon fill="white" stroke="none" points="-4,4 -4,-288.25 554.5,-288.25 554.5,4 -4,4"/>
<text text-anchor="middle" x="275.25" y="-266.95" font-family="Times,serif" font-size="14.00">Open&#45;source License Comparison</text>
<!-- table -->
<g id="node1" class="node">
<title>table</title>
<polygon fill="#e0e0e0" stroke="none" points="20,-223.25 20,-243.75 124.5,-243.75 124.5,-223.25 20,-223.25"/>
<text text-anchor="start" x="33.62" y="-229.45" font-family="Times,serif" font-weight="bold" font-size="14.00">Code License</text>
<polygon fill="#e0e0e0" stroke="none" points="126.5,-223.25 126.5,-243.75 226.5,-243.75 226.5,-223.25 126.5,-223.25"/>
<text text-anchor="start" x="143.5" y="-229.45" font-family="Times,serif" font-weight="bold" font-size="14.00">Attribution</text>
<polygon fill="#e0e0e0" stroke="none" points="228.5,-223.25 228.5,-243.75 328.5,-243.75 328.5,-223.25 228.5,-223.25"/>
<text text-anchor="start" x="244" y="-229.45" font-family="Times,serif" font-weight="bold" font-size="14.00">Share&#45;Alike</text>
<polygon fill="#e0e0e0" stroke="none" points="330.5,-223.25 330.5,-243.75 530.5,-243.75 530.5,-223.25 330.5,-223.25"/>
<text text-anchor="start" x="414.38" y="-229.45" font-family="Times,serif" font-weight="bold" font-size="14.00">Notes</text>
<text text-anchor="start" x="35.88" y="-205.57" font-family="Times,serif" font-size="14.00">0BSD/MIT&#45;0</text>
<text text-anchor="start" x="172.38" y="-205.95" font-family="Times,serif" font-size="14.00">☓</text>
<text text-anchor="start" x="274.38" y="-205.95" font-family="Times,serif" font-size="14.00">☓</text>
<text text-anchor="start" x="400.88" y="-205.57" font-family="Times,serif" font-size="14.00">permissive</text>
<text text-anchor="start" x="22" y="-182.32" font-family="Times,serif" font-size="14.00">MIT/BSD/Apache</text>
<text text-anchor="start" x="171.25" y="-182.7" font-family="Times,serif" font-size="14.00">✓</text>
<text text-anchor="start" x="274.38" y="-182.7" font-family="Times,serif" font-size="14.00">☓</text>
<text text-anchor="start" x="369" y="-182.32" font-family="Times,serif" font-size="14.00">permissive; attribution</text>
<text text-anchor="start" x="52.75" y="-159.07" font-family="Times,serif" font-size="14.00">GPLv3</text>
<text text-anchor="start" x="171.25" y="-159.45" font-family="Times,serif" font-size="14.00">✓</text>
<text text-anchor="start" x="273.25" y="-159.45" font-family="Times,serif" font-size="14.00">✓</text>
<text text-anchor="start" x="400.88" y="-159.07" font-family="Times,serif" font-size="14.00">share&#45;alike</text>
<text text-anchor="start" x="32.88" y="-135.82" font-family="Times,serif" font-size="14.00">Affero GPLv3</text>
<text text-anchor="start" x="171.25" y="-136.2" font-family="Times,serif" font-size="14.00">✓</text>
<text text-anchor="start" x="273.25" y="-136.2" font-family="Times,serif" font-size="14.00">✓</text>
<text text-anchor="start" x="348" y="-135.82" font-family="Times,serif" font-size="14.00">share&#45;alike for hosted services</text>
<polygon fill="#e0e0e0" stroke="none" points="20,-85.75 20,-106.25 121.12,-106.25 121.12,-85.75 20,-85.75"/>
<text text-anchor="start" x="33.06" y="-91.95" font-family="Times,serif" font-weight="bold" font-size="14.00">Data License</text>
<polygon fill="#e0e0e0" stroke="none" points="123.12,-85.75 123.12,-106.25 224.25,-106.25 224.25,-85.75 123.12,-85.75"/>
<text text-anchor="start" x="140.69" y="-91.95" font-family="Times,serif" font-weight="bold" font-size="14.00">Attribution</text>
<polygon fill="#e0e0e0" stroke="none" points="226.25,-85.75 226.25,-106.25 327.38,-106.25 327.38,-85.75 226.25,-85.75"/>
<text text-anchor="start" x="242.31" y="-91.95" font-family="Times,serif" font-weight="bold" font-size="14.00">Share&#45;Alike</text>
<polygon fill="#e0e0e0" stroke="none" points="329.38,-85.75 329.38,-106.25 530.5,-106.25 530.5,-85.75 329.38,-85.75"/>
<text text-anchor="start" x="413.81" y="-91.95" font-family="Times,serif" font-weight="bold" font-size="14.00">Notes</text>
<text text-anchor="start" x="58.19" y="-68.08" font-family="Times,serif" font-size="14.00">CC0</text>
<text text-anchor="start" x="169.56" y="-68.45" font-family="Times,serif" font-size="14.00">☓</text>
<text text-anchor="start" x="272.69" y="-68.45" font-family="Times,serif" font-size="14.00">☓</text>
<text text-anchor="start" x="390.56" y="-68.08" font-family="Times,serif" font-size="14.00">public domain</text>
<text text-anchor="start" x="50.31" y="-44.83" font-family="Times,serif" font-size="14.00">CC BY</text>
<text text-anchor="start" x="168.44" y="-45.2" font-family="Times,serif" font-size="14.00">✓</text>
<text text-anchor="start" x="272.69" y="-45.2" font-family="Times,serif" font-size="14.00">☓</text>
<text text-anchor="start" x="401.81" y="-44.83" font-family="Times,serif" font-size="14.00">attribution</text>
<text text-anchor="start" x="40.19" y="-21.57" font-family="Times,serif" font-size="14.00">CC BY&#45;SA</text>
<text text-anchor="start" x="168.44" y="-21.95" font-family="Times,serif" font-size="14.00">✓</text>
<text text-anchor="start" x="271.56" y="-21.95" font-family="Times,serif" font-size="14.00">✓</text>
<text text-anchor="start" x="400.31" y="-21.57" font-family="Times,serif" font-size="14.00">share&#45;alike</text>
</g>
</g>
</svg>
