<?xml version="1.0" encoding="UTF-8" standalone="no"?>
<!DOCTYPE svg PUBLIC "-//W3C//DTD SVG 1.1//EN"
 "http://www.w3.org/Graphics/SVG/1.1/DTD/svg11.dtd">
<!-- Generated by graphviz version 12.2.1 (20241206.2353)
 -->
<!-- Pages: 1 -->
<svg width="1282pt" height="415pt"
 viewBox="0.00 0.00 1282.00 415.25" xmlns="http://www.w3.org/2000/svg" xmlns:xlink="http://www.w3.org/1999/xlink">
<g id="graph0" class="graph" transform="scale(1 1) rotate(0) translate(4 411.25)">
<polygon fill="white" stroke="none" points="-4,4 -4,-411.25 1278,-411.25 1278,4 -4,4"/>
<text text-anchor="middle" x="637" y="-389.95" font-family="Times,serif" font-size="14.00">Accessible, Persistent, Trusted Archive Comparison</text>
<!-- table -->
<g id="node1" class="node">
<title>table</title>
<polygon fill="#e0e0e0" stroke="none" points="8,-342.25 8,-378.75 178.75,-378.75 178.75,-342.25 8,-342.25"/>
<text text-anchor="start" x="70.5" y="-356.45" font-family="Times,serif" font-weight="bold" font-size="14.00">Archive</text>
<polygon fill="#e0e0e0" stroke="none" points="178.75,-342.25 178.75,-378.75 300.75,-378.75 300.75,-342.25 178.75,-342.25"/>
<text text-anchor="start" x="188.75" y="-356.45" font-family="Times,serif" font-weight="bold" font-size="14.00">3rd Party Upload</text>
<polygon fill="#e0e0e0" stroke="none" points="300.75,-342.25 300.75,-378.75 386,-378.75 386,-342.25 300.75,-342.25"/>
<text text-anchor="start" x="310.75" y="-356.45" font-family="Times,serif" font-weight="bold" font-size="14.00">Immutable</text>
<polygon fill="#e0e0e0" stroke="none" points="386,-342.25 386,-378.75 432.25,-378.75 432.25,-342.25 386,-342.25"/>
<text text-anchor="start" x="396" y="-356.45" font-family="Times,serif" font-weight="bold" font-size="14.00">DOI</text>
<polygon fill="#e0e0e0" stroke="none" points="432.25,-342.25 432.25,-378.75 494.25,-378.75 494.25,-342.25 432.25,-342.25"/>
<text text-anchor="start" x="444.88" y="-356.45" font-family="Times,serif" font-weight="bold" font-size="14.00">PURL</text>
<polygon fill="#e0e0e0" stroke="none" points="494.25,-342.25 494.25,-378.75 655.25,-378.75 655.25,-342.25 494.25,-342.25"/>
<text text-anchor="start" x="504.25" y="-356.45" font-family="Times,serif" font-weight="bold" font-size="14.00">Geographic redundancy</text>
<polygon fill="#e0e0e0" stroke="none" points="655.25,-342.25 655.25,-378.75 722.5,-378.75 722.5,-342.25 655.25,-342.25"/>
<text text-anchor="start" x="665.25" y="-356.45" font-family="Times,serif" font-weight="bold" font-size="14.00">Reviews</text>
<polygon fill="#e0e0e0" stroke="none" points="722.5,-342.25 722.5,-378.75 799.5,-378.75 799.5,-342.25 722.5,-342.25"/>
<text text-anchor="start" x="732.5" y="-356.45" font-family="Times,serif" font-weight="bold" font-size="14.00">Nonprofit</text>
<polygon fill="#e0e0e0" stroke="none" points="799.5,-342.25 799.5,-378.75 1084.25,-378.75 1084.25,-342.25 799.5,-342.25"/>
<text text-anchor="start" x="901.38" y="-356.45" font-family="Times,serif" font-weight="bold" font-size="14.00">Storage limits</text>
<polygon fill="#e0e0e0" stroke="none" points="1084.25,-342.25 1084.25,-378.75 1162,-378.75 1162,-342.25 1084.25,-342.25"/>
<text text-anchor="start" x="1094.25" y="-356.45" font-family="Times,serif" font-weight="bold" font-size="14.00">Bare repo</text>
<polygon fill="#e0e0e0" stroke="none" points="1162,-342.25 1162,-378.75 1266,-378.75 1266,-342.25 1162,-342.25"/>
<text text-anchor="start" x="1172" y="-356.45" font-family="Times,serif" font-weight="bold" font-size="14.00">Container pull</text>
<text text-anchor="start" x="18" y="-318.57" font-family="Times,serif" font-size="14.00">Stanford Digital Repository</text>
<text text-anchor="start" x="234.88" y="-318.57" font-family="Times,serif" font-size="14.00">X</text>
<text text-anchor="start" x="338.12" y="-318.95" font-family="Times,serif" font-size="14.00">✓</text>
<text text-anchor="start" x="403.88" y="-318.95" font-family="Times,serif" font-size="14.00">✓</text>
<text text-anchor="start" x="458" y="-318.95" font-family="Times,serif" font-size="14.00">✓</text>
<text text-anchor="start" x="569.5" y="-318.95" font-family="Times,serif" font-size="14.00">✓</text>
<text text-anchor="start" x="667.88" y="-318.57" font-family="Times,serif" font-size="14.00">Internal</text>
<text text-anchor="start" x="755.75" y="-318.95" font-family="Times,serif" font-size="14.00">✓</text>
<text text-anchor="start" x="907" y="-318.57" font-family="Times,serif" font-size="14.00">4 TB per file</text>
<text text-anchor="start" x="1117.88" y="-318.95" font-family="Times,serif" font-size="14.00">✓</text>
<text text-anchor="start" x="1209.12" y="-318.57" font-family="Times,serif" font-size="14.00">X</text>
<text text-anchor="start" x="66.38" y="-280.95" font-family="Times,serif" font-size="14.00">Dataverse</text>
<text text-anchor="start" x="234.5" y="-281.32" font-family="Times,serif" font-size="14.00">✓</text>
<text text-anchor="start" x="338.12" y="-281.32" font-family="Times,serif" font-size="14.00">✓</text>
<text text-anchor="start" x="403.88" y="-281.32" font-family="Times,serif" font-size="14.00">✓</text>
<text text-anchor="start" x="442.25" y="-281.7" font-family="Times,serif" font-size="14.00">✓, DOI</text>
<text text-anchor="start" x="569.5" y="-281.32" font-family="Times,serif" font-size="14.00">✓</text>
<text text-anchor="start" x="683.62" y="-281.32" font-family="Times,serif" font-size="14.00">✓</text>
<text text-anchor="start" x="755.75" y="-281.32" font-family="Times,serif" font-size="14.00">✓</text>
<text text-anchor="start" x="883.38" y="-280.95" font-family="Times,serif" font-size="14.00">1 TB; 2.5 GB per file</text>
<text text-anchor="start" x="1118.25" y="-280.95" font-family="Times,serif" font-size="14.00">X</text>
<text text-anchor="start" x="1209.12" y="-280.95" font-family="Times,serif" font-size="14.00">X</text>
<text text-anchor="start" x="72.38" y="-243.32" font-family="Times,serif" font-size="14.00">DSpace</text>
<text text-anchor="start" x="234.88" y="-243.32" font-family="Times,serif" font-size="14.00">X</text>
<text text-anchor="start" x="338.12" y="-243.7" font-family="Times,serif" font-size="14.00">✓</text>
<text text-anchor="start" x="404.25" y="-243.32" font-family="Times,serif" font-size="14.00">X</text>
<text text-anchor="start" x="458" y="-243.7" font-family="Times,serif" font-size="14.00">✓</text>
<text text-anchor="start" x="569.5" y="-243.7" font-family="Times,serif" font-size="14.00">✓</text>
<text text-anchor="start" x="667.88" y="-243.32" font-family="Times,serif" font-size="14.00">Internal</text>
<text text-anchor="start" x="755.75" y="-243.7" font-family="Times,serif" font-size="14.00">✓</text>
<text text-anchor="start" x="925" y="-243.32" font-family="Times,serif" font-size="14.00">Varies</text>
<text text-anchor="start" x="1118.25" y="-243.32" font-family="Times,serif" font-size="14.00">X</text>
<text text-anchor="start" x="1209.12" y="-243.32" font-family="Times,serif" font-size="14.00">X</text>
<text text-anchor="start" x="72.75" y="-205.7" font-family="Times,serif" font-size="14.00">Zenodo</text>
<text text-anchor="start" x="234.5" y="-206.07" font-family="Times,serif" font-size="14.00">✓</text>
<text text-anchor="start" x="338.12" y="-206.07" font-family="Times,serif" font-size="14.00">✓</text>
<text text-anchor="start" x="403.88" y="-206.07" font-family="Times,serif" font-size="14.00">✓</text>
<text text-anchor="start" x="442.25" y="-206.45" font-family="Times,serif" font-size="14.00">✓, DOI</text>
<text text-anchor="start" x="569.5" y="-206.07" font-family="Times,serif" font-size="14.00">✓</text>
<text text-anchor="start" x="683.62" y="-206.07" font-family="Times,serif" font-size="14.00">✓</text>
<text text-anchor="start" x="755.75" y="-206.07" font-family="Times,serif" font-size="14.00">✓</text>
<text text-anchor="start" x="868.75" y="-205.7" font-family="Times,serif" font-size="14.00">50 GB; 200 GB on request</text>
<text text-anchor="start" x="1118.25" y="-205.7" font-family="Times,serif" font-size="14.00">X</text>
<text text-anchor="start" x="1209.12" y="-205.7" font-family="Times,serif" font-size="14.00">X</text>
<text text-anchor="start" x="71.62" y="-167.7" font-family="Times,serif" font-size="14.00">figshare</text>
<text text-anchor="start" x="234.5" y="-168.07" font-family="Times,serif" font-size="14.00">✓</text>
<text text-anchor="start" x="338.12" y="-168.07" font-family="Times,serif" font-size="14.00">✓</text>
<text text-anchor="start" x="403.88" y="-168.07" font-family="Times,serif" font-size="14.00">✓</text>
<text text-anchor="start" x="442.25" y="-168.45" font-family="Times,serif" font-size="14.00">✓, DOI</text>
<text text-anchor="start" x="569.5" y="-168.07" font-family="Times,serif" font-size="14.00">✓</text>
<text text-anchor="start" x="683.62" y="-168.07" font-family="Times,serif" font-size="14.00">✓</text>
<text text-anchor="start" x="756.12" y="-167.7" font-family="Times,serif" font-size="14.00">X</text>
<text text-anchor="start" x="923.88" y="-167.7" font-family="Times,serif" font-size="14.00">20 GB</text>
<text text-anchor="start" x="1118.25" y="-167.7" font-family="Times,serif" font-size="14.00">X</text>
<text text-anchor="start" x="1209.12" y="-167.7" font-family="Times,serif" font-size="14.00">X</text>
<text text-anchor="start" x="76.5" y="-129.7" font-family="Times,serif" font-size="14.00">Dryad</text>
<text text-anchor="start" x="234.5" y="-130.07" font-family="Times,serif" font-size="14.00">✓</text>
<text text-anchor="start" x="338.12" y="-130.07" font-family="Times,serif" font-size="14.00">✓</text>
<text text-anchor="start" x="403.88" y="-130.07" font-family="Times,serif" font-size="14.00">✓</text>
<text text-anchor="start" x="442.25" y="-130.45" font-family="Times,serif" font-size="14.00">✓, DOI</text>
<text text-anchor="start" x="569.5" y="-130.07" font-family="Times,serif" font-size="14.00">✓</text>
<text text-anchor="start" x="683.62" y="-130.07" font-family="Times,serif" font-size="14.00">✓</text>
<text text-anchor="start" x="755.75" y="-130.07" font-family="Times,serif" font-size="14.00">✓</text>
<text text-anchor="start" x="890.5" y="-129.7" font-family="Times,serif" font-size="14.00">300 GB; CC0 only</text>
<text text-anchor="start" x="1118.25" y="-129.7" font-family="Times,serif" font-size="14.00">X</text>
<text text-anchor="start" x="1209.12" y="-129.7" font-family="Times,serif" font-size="14.00">X</text>
<text text-anchor="start" x="74.25" y="-92.08" font-family="Times,serif" font-size="14.00">CKAN</text>
<text text-anchor="start" x="234.5" y="-92.45" font-family="Times,serif" font-size="14.00">✓</text>
<text text-anchor="start" x="338.5" y="-92.08" font-family="Times,serif" font-size="14.00">X</text>
<text text-anchor="start" x="403.88" y="-92.45" font-family="Times,serif" font-size="14.00">✓</text>
<text text-anchor="start" x="458" y="-92.45" font-family="Times,serif" font-size="14.00">✓</text>
<text text-anchor="start" x="508" y="-92.08" font-family="Times,serif" font-size="14.00">Implementation&#45;specific</text>
<text text-anchor="start" x="684" y="-92.08" font-family="Times,serif" font-size="14.00">X</text>
<text text-anchor="start" x="755.75" y="-92.45" font-family="Times,serif" font-size="14.00">✓</text>
<text text-anchor="start" x="925" y="-92.08" font-family="Times,serif" font-size="14.00">Varies</text>
<text text-anchor="start" x="1118.25" y="-92.08" font-family="Times,serif" font-size="14.00">X</text>
<text text-anchor="start" x="1209.12" y="-92.08" font-family="Times,serif" font-size="14.00">X</text>
<text text-anchor="start" x="49.12" y="-54.83" font-family="Times,serif" font-size="14.00">Internet Archive</text>
<text text-anchor="start" x="234.5" y="-55.2" font-family="Times,serif" font-size="14.00">✓</text>
<text text-anchor="start" x="338.5" y="-54.83" font-family="Times,serif" font-size="14.00">X</text>
<text text-anchor="start" x="404.25" y="-54.83" font-family="Times,serif" font-size="14.00">X</text>
<text text-anchor="start" x="458" y="-55.2" font-family="Times,serif" font-size="14.00">✓</text>
<text text-anchor="start" x="569.5" y="-55.2" font-family="Times,serif" font-size="14.00">✓</text>
<text text-anchor="start" x="684" y="-54.83" font-family="Times,serif" font-size="14.00">X</text>
<text text-anchor="start" x="755.75" y="-55.2" font-family="Times,serif" font-size="14.00">✓</text>
<text text-anchor="start" x="809.5" y="-54.83" font-family="Times,serif" font-size="14.00">no limit; 50 GB per file and 1000 files soft limit</text>
<text text-anchor="start" x="1117.88" y="-55.2" font-family="Times,serif" font-size="14.00">✓</text>
<text text-anchor="start" x="1209.12" y="-54.83" font-family="Times,serif" font-size="14.00">X</text>
<text text-anchor="start" x="74.62" y="-17.57" font-family="Times,serif" font-size="14.00">Github</text>
<text text-anchor="start" x="234.5" y="-17.95" font-family="Times,serif" font-size="14.00">✓</text>
<text text-anchor="start" x="338.5" y="-17.57" font-family="Times,serif" font-size="14.00">X</text>
<text text-anchor="start" x="404.25" y="-17.57" font-family="Times,serif" font-size="14.00">X</text>
<text text-anchor="start" x="458.38" y="-17.57" font-family="Times,serif" font-size="14.00">X</text>
<text text-anchor="start" x="569.88" y="-17.57" font-family="Times,serif" font-size="14.00">X</text>
<text text-anchor="start" x="684" y="-17.57" font-family="Times,serif" font-size="14.00">X</text>
<text text-anchor="start" x="756.12" y="-17.57" font-family="Times,serif" font-size="14.00">X</text>
<text text-anchor="start" x="858.62" y="-17.57" font-family="Times,serif" font-size="14.00">100 GB total; 100 MB per file</text>
<text text-anchor="start" x="1117.88" y="-17.95" font-family="Times,serif" font-size="14.00">✓</text>
<text text-anchor="start" x="1208.75" y="-17.95" font-family="Times,serif" font-size="14.00">✓</text>
</g>
</g>
</svg>
